<svg viewBox="0 0 400 300" xmlns="http://www.w3.org/2000/svg">
  <defs>
    <linearGradient id="dataGradient" x1="0%" y1="0%" x2="100%" y2="100%">
      <stop offset="0%" style="stop-color:#00b894;stop-opacity:1" />
      <stop offset="100%" style="stop-color:#00cec9;stop-opacity:1" />
    </linearGradient>
  </defs>
  <rect width="400" height="300" fill="url(#dataGradient)"/>
  
  <!-- Chart bars -->
  <rect x="80" y="160" width="30" height="60" fill="white" opacity="0.9"/>
  <rect x="130" y="130" width="30" height="90" fill="white" opacity="0.9"/>
  <rect x="180" y="100" width="30" height="120" fill="white" opacity="0.9"/>
  <rect x="230" y="140" width="30" height="80" fill="white" opacity="0.9"/>
  <rect x="280" y="110" width="30" height="110" fill="white" opacity="0.9"/>
  
  <!-- Trend line -->
  <polyline points="95,180 145,150 195,120 245,160 295,130" stroke="#ff7675" stroke-width="3" fill="none"/>
  <circle cx="95" cy="180" r="4" fill="#ff7675"/>
  <circle cx="145" cy="150" r="4" fill="#ff7675"/>
  <circle cx="195" cy="120" r="4" fill="#ff7675"/>
  <circle cx="245" cy="160" r="4" fill="#ff7675"/>
  <circle cx="295" cy="130" r="4" fill="#ff7675"/>
  
  <!-- Pie chart -->
  <circle cx="100" cy="100" r="25" fill="white" opacity="0.8"/>
  <path d="M100,75 A25,25 0 0,1 118,112 L100,100" fill="#fd79a8"/>
  <path d="M100,75 A25,25 0 0,1 125,100 L100,100" fill="#fdcb6e"/>
  
  <text x="200" y="260" text-anchor="middle" font-family="Arial" font-size="18" font-weight="bold" fill="white">DATA ANALYTICS</text>
</svg>